<svg version="1" xmlns="http://www.w3.org/2000/svg" width="933.333" height="933.333" viewBox="0 0 700.000000 700.000000"><path d="M620.7 10.6c-.1.1-5.3.5-11.5.9-6.3.4-12.4.8-13.5 1-1.2.2-5.2.6-8.9 1-3.7.3-7.7.8-9 1-1.3.2-4.3.6-6.8.9-2.5.3-5.5.8-6.6 1-1.2.2-3.9.7-6 1.1-4.6.7-8 1.3-11.4 2-1.4.3-3.8.8-5.5 1.1-2.6.4-33.1 7.9-36 8.8-.5.1-3 .8-5.5 1.5-41.4 11.8-93.8 36.3-131 61.5-27.7 18.7-48.7 36.2-74.5 62.1-25.7 25.7-45.2 49.8-64.7 79.5l-7.5 11.5-54.9-.1c-30.2 0-56.2.3-57.9.7-2.1.6-18.2 16.1-54.3 52.2-45.4 45.4-51.3 51.7-51.9 55-.7 4.8 1 8.9 4.8 11.1 2.7 1.6 6.6 1.8 46.6 1.7 36.4 0 44.2.2 46.7 1.4 1.7.9 13.6 12 26.4 24.9l23.2 23.3-6.7 3.3c-10.6 5.2-17.9 10.6-27.7 20.4-12.9 12.9-23.7 26-38.1 46.1-13.9 19.4-31.8 56.1-40.3 82.5-3.1 9.4-8.5 29.6-9.5 35.5-2.7 14.8-3.7 20.9-4.2 26.5-.4 3.6-.9 7.4-1.2 8.5-.2 1.1-.6 10.9-.9 21.7-.3 14.5-.1 19.9.8 20.4 1.4.9 24.5.9 35.8 0 7.2-.6 13.7-1.3 26.5-3.1 1.7-.2 8.7-1.5 16.7-3 1.9-.4 22.4-5.7 26.3-6.8 4.2-1.2 18.4-5.9 20-6.7 1.1-.4 7.6-3.2 14.5-6.1 27.9-11.7 55.6-28.7 81.8-50.1 9.8-8 26.2-24.3 31-30.8 4.3-5.9 11.6-19.7 12.7-24.2.9-3.4 2.1-4.4 6.8-5.2 2.1-.4 4.4-.9 5.1-1.2 1.3-.5 49 46.7 51.2 50.7 1 1.9 1.3 12 1.4 46.7 0 39.2.2 44.6 1.7 46.8 3.9 6 11.2 6.5 17.1 1.2 13.4-12.2 99.7-99.8 100.7-102.2 1-2.4 1.3-16.8 1.3-59v-56l2.8-2.4c1.6-1.2 8.1-6 14.4-10.5 6.3-4.6 12.4-9 13.5-9.9 28.5-23.1 56-49.5 74.6-71.8 39.8-47.6 68.6-98.8 88.2-157 3.7-10.9 9.3-30 11.2-38 .1-.8 1.2-5.3 2.3-10 1.1-4.7 2.7-12.3 3.6-17 2.1-11.7 3.2-18.3 4.1-25 .3-2.5.8-5.6 1-7 .2-1.4.7-5.7 1-9.5.3-3.9.8-9.5 1.1-12.5 2.2-21.7 1.7-67.7-.8-77.5-1.2-4.8-5-9.1-9.2-10.5-4.7-1.5-15.9-2.2-39.4-2.4-11.7-.1-21.4-.1-21.5 0z"/></svg>